<svg width="266" height="40" viewBox="0 0 266 40" fill="none" xmlns="http://www.w3.org/2000/svg">
<g clip-path="url(#clip0_128_3061)">
<path d="M55.5454 28.8157C54.263 28.8157 53.0688 28.5803 51.9645 28.111C50.8758 27.6416 49.9182 26.9926 49.0903 26.1666C48.2781 25.3236 47.644 24.335 47.1894 23.2009C46.7348 22.0668 46.5068 20.8186 46.5068 19.4577C46.5068 18.0968 46.7263 16.8729 47.1652 15.7388C47.6197 14.5876 48.2539 13.599 49.0661 12.7731C49.8783 11.93 50.8288 11.2824 51.916 10.8287C53.0047 10.3594 54.1988 10.124 55.497 10.124C56.7952 10.124 57.9252 10.3423 58.9326 10.7802C59.9557 11.2182 60.8164 11.793 61.5147 12.5063C62.2129 13.2024 62.7159 13.9642 63.0251 14.7916L60.4673 16.0312C60.094 15.0427 59.477 14.2481 58.6163 13.6489C57.7556 13.0327 56.7154 12.7246 55.497 12.7246C54.2786 12.7246 53.2313 13.0084 52.3051 13.5748C51.3788 14.1425 50.6564 14.9285 50.1362 15.9328C49.6332 16.9371 49.381 18.1125 49.381 19.4577C49.381 20.8029 49.6404 21.9855 50.1605 23.0069C50.6963 24.0112 51.4273 24.7972 52.3535 25.3649C53.2797 25.9156 54.3428 26.1909 55.5454 26.1909C56.5529 26.1909 57.4706 25.9883 58.2985 25.5832C59.1435 25.1624 59.8175 24.5789 60.3205 23.8329C60.8236 23.0711 61.0758 22.1881 61.0758 21.1838V19.9442L62.3668 21.1111H55.4956V18.6803H63.9257V20.3821C63.9257 21.7116 63.6977 22.9028 63.2432 23.9555C62.7886 24.9926 62.1716 25.8756 61.3921 26.6046C60.6127 27.3335 59.7192 27.8842 58.7117 28.2579C57.7043 28.6302 56.6484 28.8171 55.544 28.8171L55.5454 28.8157Z" fill="#ED682E"/>
<path d="M70.8087 28.8161C69.8183 28.8161 68.9491 28.5978 68.2009 28.1599C67.4543 27.7062 66.8686 27.0828 66.4468 26.2883C66.0407 25.478 65.8369 24.5465 65.8369 23.4923V15.3726H68.59V23.2484C68.59 23.8475 68.7125 24.3753 68.9548 24.8289C69.1984 25.2826 69.539 25.6392 69.9779 25.8988C70.4168 26.1413 70.9198 26.264 71.4884 26.264C72.0569 26.264 72.5842 26.1342 73.0231 25.8746C73.462 25.615 73.8025 25.2512 74.0462 24.7804C74.3055 24.3111 74.4352 23.7591 74.4352 23.1271V15.3726H77.164V28.5236H74.5563V25.9473L74.8485 26.2883C74.5392 27.0985 74.0277 27.7219 73.3138 28.1599C72.5984 28.5978 71.762 28.8161 70.8044 28.8161H70.8087Z" fill="#ED682E"/>
<path d="M79.894 28.5247V15.3736H82.6471V28.5247H79.894ZM79.894 13.5748V10.415H82.6471V13.5748H79.894Z" fill="#ED682E"/>
<path d="M85.3789 28.5246V10.1226H88.132V28.5246H85.3789Z" fill="#ED682E"/>
<path d="M90.8633 28.5246V10.1226H93.6163V28.5246H90.8633Z" fill="#ED682E"/>
<path d="M100.296 28.816C99.4021 28.816 98.614 28.662 97.9329 28.3539C97.2674 28.03 96.7473 27.5921 96.374 27.0415C96.0006 26.4737 95.814 25.8104 95.814 25.0486C95.814 24.3354 95.9679 23.6949 96.2771 23.1285C96.602 22.5608 97.0979 22.0829 97.7633 21.6949C98.4288 21.3054 99.2652 21.0301 100.273 20.8689L104.853 20.1157V22.2797L100.808 22.9844C100.077 23.1143 99.5417 23.3496 99.1997 23.6891C98.8591 24.013 98.6881 24.4352 98.6881 24.953C98.6881 25.4709 98.8748 25.8689 99.2481 26.1927C99.6386 26.5008 100.133 26.6549 100.734 26.6549C101.481 26.6549 102.131 26.4923 102.684 26.1684C103.252 25.8446 103.691 25.4152 103.999 24.8803C104.308 24.3297 104.462 23.722 104.462 23.0572V19.6778C104.462 19.0301 104.218 18.5023 103.731 18.0972C103.259 17.6764 102.627 17.4653 101.83 17.4653C101.099 17.4653 100.458 17.6593 99.9051 18.0487C99.3693 18.421 98.9717 18.9075 98.7109 19.5066L96.421 18.364C96.6647 17.7163 97.0622 17.1486 97.6151 16.6621C98.1666 16.16 98.8093 15.7706 99.5403 15.4952C100.287 15.2199 101.075 15.0815 101.903 15.0815C102.942 15.0815 103.861 15.2755 104.656 15.665C105.468 16.0544 106.094 16.5965 106.531 17.2941C106.986 17.9745 107.214 18.7691 107.214 19.6764V28.525H104.583V26.1428L105.143 26.2155C104.834 26.7505 104.436 27.2126 103.949 27.6007C103.477 27.9901 102.935 28.2897 102.316 28.5008C101.715 28.7119 101.041 28.8175 100.294 28.8175L100.296 28.816Z" fill="#ED682E"/>
<path d="M114.649 28.8161C113.659 28.8161 112.789 28.5978 112.043 28.1599C111.296 27.7062 110.71 27.0828 110.289 26.2883C109.883 25.478 109.68 24.5465 109.68 23.4923V15.3726H112.433V23.2484C112.433 23.8475 112.554 24.3753 112.798 24.8289C113.042 25.2826 113.382 25.6392 113.821 25.8988C114.26 26.1413 114.763 26.264 115.332 26.264C115.9 26.264 116.427 26.1342 116.866 25.8746C117.305 25.615 117.646 25.2512 117.889 24.7804C118.149 24.3111 118.28 23.7591 118.28 23.1271V15.3726H121.009V28.5236H118.401V25.9473L118.693 26.2883C118.384 27.0985 117.872 27.7219 117.158 28.1599C116.443 28.5978 115.607 28.8161 114.649 28.8161Z" fill="#ED682E"/>
<path d="M123.735 28.5251V15.374H126.365V18.2185L126.025 17.7806C126.301 16.889 126.804 16.2171 127.535 15.7635C128.266 15.3098 129.103 15.083 130.045 15.083C131.101 15.083 132.034 15.3669 132.846 15.9332C133.674 16.4838 134.227 17.2214 134.503 18.1457L133.724 18.2185C134.113 17.1657 134.706 16.3797 135.502 15.8605C136.315 15.3412 137.241 15.083 138.28 15.083C139.189 15.083 140.009 15.2941 140.741 15.715C141.487 16.1358 142.08 16.7192 142.519 17.4653C142.958 18.2114 143.176 19.0616 143.176 20.0173V28.5251H140.423V20.7705C140.423 20.1058 140.302 19.5466 140.058 19.0929C139.831 18.6236 139.506 18.267 139.083 18.0231C138.677 17.7634 138.198 17.6336 137.645 17.6336C137.093 17.6336 136.605 17.7634 136.183 18.0231C135.762 18.2656 135.428 18.6222 135.185 19.0929C134.941 19.5623 134.82 20.1215 134.82 20.7705V28.5251H132.091V20.7705C132.091 20.1058 131.97 19.5466 131.726 19.0929C131.5 18.6236 131.175 18.267 130.751 18.0231C130.345 17.7634 129.858 17.6336 129.289 17.6336C128.721 17.6336 128.251 17.7634 127.827 18.0231C127.406 18.2656 127.072 18.6222 126.828 19.0929C126.6 19.5623 126.488 20.1215 126.488 20.7705V28.5251H123.735Z" fill="#ED682E"/>
<path d="M151.826 28.816C150.51 28.816 149.34 28.5164 148.317 27.9159C147.31 27.2996 146.522 26.4737 145.953 25.4366C145.385 24.3838 145.101 23.2084 145.101 21.9117C145.101 20.615 145.385 19.4081 145.953 18.3867C146.537 17.3654 147.317 16.5637 148.292 15.9802C149.266 15.3811 150.371 15.0801 151.605 15.0801C152.595 15.0801 153.48 15.2498 154.261 15.5908C155.04 15.9317 155.699 16.401 156.234 17.0002C156.77 17.5836 157.176 18.2555 157.453 19.0173C157.745 19.779 157.892 20.5893 157.892 21.4481C157.892 21.6592 157.883 21.8774 157.867 22.1042C157.852 22.3311 157.819 22.5422 157.771 22.7362H147.27V20.5479H156.212L154.896 21.5451C155.059 20.7505 155.002 20.0458 154.725 19.4295C154.466 18.7976 154.06 18.3026 153.507 17.9474C152.971 17.5751 152.337 17.3882 151.606 17.3882C150.875 17.3882 150.225 17.5751 149.657 17.9474C149.088 18.304 148.649 18.8218 148.341 19.5037C148.032 20.1685 147.911 20.9787 147.977 21.9345C147.895 22.8261 148.018 23.6035 148.341 24.2683C148.683 24.933 149.154 25.4509 149.755 25.8246C150.372 26.1969 151.07 26.3838 151.85 26.3838C152.629 26.3838 153.32 26.2055 153.872 25.8489C154.44 25.4922 154.886 25.03 155.211 24.4637L157.453 25.5578C157.193 26.1741 156.787 26.7333 156.234 27.2354C155.699 27.7219 155.049 28.1099 154.285 28.4023C153.538 28.6776 152.718 28.816 151.824 28.816H151.826Z" fill="#ED682E"/>
<path d="M174.558 28.6377C173.277 28.6377 172.101 28.4094 171.031 27.9515C169.961 27.4779 169.029 26.8246 168.234 25.9915C167.456 25.1427 166.847 24.1456 166.41 23.0015C165.972 21.8574 165.753 20.6007 165.753 19.2284C165.753 17.856 165.972 16.5979 166.41 15.4552C166.847 14.3112 167.456 13.3154 168.234 12.4652C169.029 11.6165 169.961 10.9617 171.031 10.5052C172.101 10.0316 173.277 9.7948 174.558 9.7948C175.839 9.7948 176.893 10.0159 177.865 10.4567C178.854 10.8975 179.681 11.4695 180.346 12.1714C181.027 12.8575 181.513 13.5851 181.805 14.3525L180.054 15.2099C179.599 14.0986 178.903 13.2256 177.962 12.5879C177.022 11.9503 175.887 11.6322 174.556 11.6322C173.226 11.6322 172.043 11.9503 171.005 12.5879C169.968 13.2256 169.157 14.1157 168.573 15.2584C167.989 16.3853 167.698 17.7091 167.698 19.2284C167.698 20.7476 167.99 22.0543 168.573 23.1984C169.157 24.3424 169.968 25.2326 171.005 25.8688C172.043 26.4893 173.227 26.8003 174.556 26.8003C175.741 26.8003 176.802 26.5393 177.743 26.0157C178.699 25.4936 179.453 24.7818 180.004 23.8845C180.556 22.9701 180.831 21.9245 180.831 20.7476V20.6249H174.555V18.9102H182.776V20.4295C182.776 21.6221 182.565 22.7247 182.143 23.7376C181.721 24.7347 181.137 25.6006 180.392 26.3353C179.646 27.0699 178.77 27.642 177.765 28.0499C176.777 28.4422 175.706 28.6377 174.555 28.6377H174.558Z" fill="#FF9C2C"/>
<path d="M189.28 28.6375C188.454 28.6375 187.716 28.482 187.067 28.1724C186.419 27.8458 185.908 27.405 185.536 26.8486C185.162 26.2937 184.977 25.6561 184.977 24.9371C184.977 23.9243 185.309 23.0427 185.975 22.2909C186.64 21.5391 187.693 21.0413 189.137 20.7959L193.855 20.0113V19.3252C193.855 18.5406 193.571 17.9044 193.004 17.4136C192.437 16.9229 191.699 16.679 190.791 16.679C189.996 16.679 189.299 16.883 188.699 17.291C188.099 17.6833 187.653 18.1982 187.361 18.8345L185.707 17.9272C185.95 17.3723 186.331 16.8659 186.849 16.408C187.385 15.95 187.992 15.5906 188.673 15.3295C189.355 15.0513 190.06 14.913 190.79 14.913C191.746 14.913 192.589 15.1013 193.319 15.4764C194.064 15.8516 194.64 16.3751 195.046 17.0442C195.468 17.6975 195.679 18.4579 195.679 19.3238V28.3408H193.855V26.4535C193.433 27.0911 192.817 27.6132 192.006 28.0212C191.196 28.4292 190.288 28.6332 189.282 28.6332L189.28 28.6375ZM186.921 24.8643C186.921 25.4521 187.147 25.9514 187.602 26.3593C188.072 26.7673 188.672 26.9713 189.402 26.9713C190.294 26.9713 191.072 26.783 191.737 26.4078C192.403 26.0155 192.921 25.4934 193.293 24.8401C193.667 24.1868 193.853 23.4592 193.853 22.6589V21.6789L189.573 22.3893C188.632 22.5534 187.951 22.8544 187.529 23.2966C187.123 23.7374 186.921 24.2609 186.921 24.8643Z" fill="#FF9C2C"/>
<path d="M205.121 33.7346C203.774 33.7346 202.6 33.4322 201.594 32.8273C200.605 32.2225 199.891 31.4464 199.454 30.4992L201.132 29.592C201.392 30.2125 201.853 30.7517 202.519 31.2096C203.184 31.6676 204.035 31.8958 205.072 31.8958C205.867 31.8958 206.597 31.7403 207.261 31.4308C207.927 31.1198 208.461 30.6633 208.867 30.0584C209.273 29.4536 209.476 28.7104 209.476 27.8288V25.7218C208.99 26.4893 208.333 27.0856 207.506 27.5107C206.68 27.9358 205.788 28.1483 204.83 28.1483C203.613 28.1483 202.52 27.8545 201.547 27.2668C200.574 26.679 199.804 25.8859 199.236 24.8902C198.684 23.8773 198.409 22.759 198.409 21.5336C198.409 20.3082 198.686 19.1727 199.236 18.177C199.803 17.1799 200.565 16.3881 201.521 15.8004C202.495 15.2127 203.598 14.9188 204.829 14.9188C205.785 14.9188 206.668 15.1228 207.479 15.5308C208.29 15.9388 208.955 16.4951 209.474 17.197V15.2127H211.298V27.8331C211.298 28.96 211.03 29.9657 210.496 30.8473C209.977 31.746 209.248 32.4479 208.307 32.9543C207.382 33.4764 206.321 33.7389 205.121 33.7389V33.7346ZM204.926 26.3096C205.769 26.3096 206.532 26.097 207.213 25.6719C207.894 25.2311 208.437 24.6505 208.841 23.9316C209.263 23.1969 209.474 22.3966 209.474 21.5307C209.474 20.6648 209.263 19.8731 208.841 19.1542C208.435 18.4195 207.892 17.8389 207.213 17.4138C206.532 16.973 205.769 16.7519 204.926 16.7519C204.082 16.7519 203.288 16.973 202.59 17.4138C201.893 17.8389 201.342 18.4109 200.936 19.1285C200.547 19.8474 200.351 20.6477 200.351 21.5293C200.351 22.4109 200.547 23.1955 200.936 23.9301C201.342 24.6491 201.885 25.2283 202.566 25.6705C203.263 26.0956 204.049 26.3081 204.926 26.3081V26.3096Z" fill="#FF9C2C"/>
<path d="M214.561 28.3437V15.2098H216.385V16.8274C216.774 16.2397 217.293 15.7732 217.941 15.4309C218.589 15.0871 219.319 14.9159 220.13 14.9159C221.055 14.9159 221.881 15.1284 222.611 15.5535C223.357 15.9786 223.94 16.5664 224.362 17.3181C224.799 18.0528 225.019 18.8859 225.019 19.8174V28.3451H223.195V20.5278C223.195 19.3352 222.879 18.4123 222.246 17.7589C221.63 17.0885 220.819 16.7547 219.813 16.7547C218.807 16.7547 218.005 17.0899 217.357 17.7589C216.708 18.4294 216.384 19.3524 216.384 20.5278V28.3451H214.56L214.561 28.3437Z" fill="#FF9C2C"/>
<path d="M231.788 28.6375C230.96 28.6375 230.223 28.482 229.575 28.1724C228.926 27.8458 228.415 27.405 228.043 26.8486C227.67 26.2937 227.483 25.6561 227.483 24.9371C227.483 23.9243 227.815 23.0427 228.48 22.2909C229.146 21.5391 230.199 21.0413 231.642 20.7959L236.36 20.0113V19.3252C236.36 18.5406 236.077 17.9044 235.51 17.4136C234.943 16.9229 234.205 16.679 233.297 16.679C232.502 16.679 231.805 16.883 231.205 17.291C230.605 17.6833 230.159 18.1982 229.867 18.8345L228.212 17.9272C228.456 17.3723 228.837 16.8659 229.355 16.408C229.891 15.95 230.498 15.5906 231.179 15.3295C231.86 15.0513 232.566 14.913 233.295 14.913C234.252 14.913 235.095 15.1013 235.825 15.4764C236.57 15.8516 237.146 16.3751 237.552 17.0442C237.974 17.6975 238.184 18.4579 238.184 19.3238V28.3408H236.36V26.4535C235.939 27.0911 235.323 27.6132 234.512 28.0212C233.701 28.4292 232.794 28.6332 231.788 28.6332V28.6375ZM229.428 24.8643C229.428 25.4521 229.655 25.9514 230.109 26.3593C230.579 26.7673 231.179 26.9713 231.909 26.9713C232.801 26.9713 233.579 26.783 234.244 26.4078C234.91 26.0155 235.429 25.4934 235.8 24.8401C236.174 24.1868 236.36 23.4592 236.36 22.6589V21.6789L232.08 22.3893C231.139 22.5534 230.458 22.8544 230.036 23.2966C229.63 23.7374 229.428 24.2609 229.428 24.8643Z" fill="#FF9C2C"/>
<path d="M241.449 12.7829V10.0868H243.273V12.7829H241.449ZM241.449 28.3434V15.2094H243.273V28.3434H241.449Z" fill="#FF9C2C"/>
<path d="M246.521 28.3435V15.2096H248.344V16.6304C248.685 16.124 249.14 15.7317 249.707 15.4535C250.291 15.1754 250.979 15.037 251.774 15.037H252.601V16.8743H251.458C250.518 16.8743 249.764 17.1682 249.197 17.7559C248.629 18.3437 248.346 19.1767 248.346 20.2552V28.3421H246.522L246.521 28.3435Z" fill="#FF9C2C"/>
<path d="M260.187 28.6376C258.972 28.6376 257.869 28.3437 256.88 27.756C255.907 27.1511 255.137 26.3266 254.568 25.281C254 24.2353 253.718 23.0513 253.718 21.7275C253.718 20.4037 253.994 19.2368 254.544 18.224C255.096 17.1955 255.841 16.3866 256.781 15.7975C257.738 15.2098 258.808 14.9159 259.992 14.9159C260.932 14.9159 261.767 15.0956 262.497 15.4551C263.242 15.7975 263.875 16.2725 264.394 16.8759C264.912 17.4637 265.31 18.1341 265.585 18.8859C265.861 19.6205 265.998 20.3809 265.998 21.1655C265.998 21.3295 265.99 21.5164 265.974 21.7289C265.957 21.9244 265.934 22.1298 265.901 22.3409H255.637C255.67 23.2881 255.897 24.1055 256.318 24.7917C256.756 25.4621 257.316 25.9842 257.997 26.3594C258.678 26.7346 259.408 26.9229 260.186 26.9229C261.142 26.9229 261.946 26.6946 262.594 26.2367C263.242 25.7788 263.77 25.2082 264.174 24.5221L265.73 25.3551C265.471 25.9429 265.073 26.4907 264.539 26.9971C264.003 27.4878 263.363 27.8872 262.618 28.1982C261.889 28.4921 261.078 28.639 260.186 28.639L260.187 28.6376ZM259.993 16.6306C259.279 16.6306 258.615 16.7946 257.998 17.1213C257.383 17.448 256.864 17.913 256.442 18.5178C256.036 19.1056 255.785 19.8088 255.689 20.6248H264.032C264.015 19.8402 263.821 19.1541 263.448 18.5663C263.091 17.9615 262.604 17.4879 261.988 17.1455C261.388 16.8017 260.723 16.6306 259.993 16.6306Z" fill="#FF9C2C"/>
<path d="M36.6247 26.2281V13.7704C36.6247 11.0757 35.1883 8.58639 32.8571 7.23833L22.0786 1.01016C19.7473 -0.336475 16.876 -0.336475 14.5447 1.01016L3.76763 7.23976C1.43637 8.58639 0 11.0771 0 13.7718V26.2295C0 28.9242 1.43637 31.4135 3.76763 32.7601L14.5461 38.9897C16.8774 40.3364 19.7487 40.3364 22.08 38.9897L32.8585 32.7601C35.1897 31.4135 36.6261 28.9228 36.6261 26.2295L36.6247 26.2281Z" fill="url(#paint0_linear_128_3061)"/>
<path opacity="0.6" d="M29.5911 19.5307L24.9357 16.8674C24.5281 16.6349 24.0294 16.6349 23.6233 16.8702L20.2902 18.796C19.411 19.3039 19.411 20.572 20.2902 21.0799L22.3094 22.2468C23.1886 22.7546 23.1886 24.0242 22.3094 24.532L18.9721 26.4607C18.5646 26.6961 18.063 26.6961 17.654 26.4607L12.9987 23.7717C12.5897 23.5349 12.3403 23.0998 12.3403 22.6291V17.2483C12.3403 16.7775 12.5925 16.3424 12.9987 16.1056L17.654 13.4152C18.0616 13.1784 18.5646 13.1784 18.9721 13.4152L23.6204 16.1013C24.0265 16.3367 24.5253 16.3381 24.9328 16.1042L28.2616 14.2012C29.1436 13.6962 29.1465 12.4223 28.2658 11.9131L18.9422 6.53511C18.5347 6.29974 18.0359 6.29974 17.6284 6.53511L7.03228 12.6249C6.62189 12.8603 6.37109 13.2968 6.37109 13.769V26.0556C6.37109 26.5263 6.62189 26.9614 7.02801 27.1968L17.627 33.3394C18.0345 33.5762 18.5375 33.5762 18.9451 33.3408L29.5968 27.1968C30.0057 26.96 30.2565 26.5249 30.2565 26.0541V20.6762C30.2565 20.2026 30.0029 19.7661 29.5925 19.5307H29.5911Z" fill="white"/>
<path d="M7.02947 27.1982L11.2944 29.6704L17.6256 33.3394C17.8279 33.4563 18.0545 33.5162 18.2811 33.5162C18.2839 33.5162 18.2853 33.5148 18.2853 33.512L18.311 27.3023C18.311 27.017 18.1614 26.7531 17.9149 26.6105L17.6555 26.4607L13.0671 23.8102L12.7393 23.6205C12.4928 23.4778 12.3418 23.2154 12.3418 22.9315V16.9444C12.3418 16.662 12.1922 16.3995 11.9485 16.2568L6.55353 13.1099C6.55353 13.1099 6.54926 13.1099 6.54783 13.1099C6.43383 13.3068 6.37256 13.5322 6.37256 13.7661V26.0499C6.37256 26.522 6.62478 26.9586 7.0309 27.1954L7.02947 27.1982Z" fill="white"/>
<path d="M23.27 23.0413C23.27 23.0156 23.27 22.9928 23.2657 22.97C23.2686 22.9928 23.27 23.0171 23.27 23.0413ZM23.213 22.8145C23.2016 22.7945 23.1874 22.7774 23.1688 22.7617C23.1845 22.7774 23.2002 22.7959 23.213 22.8145ZM23.2643 22.9629C23.26 22.9386 23.2558 22.9158 23.2486 22.8929C23.2558 22.9158 23.2615 22.9372 23.2643 22.9629ZM23.2415 22.8773C23.233 22.8559 23.2244 22.8359 23.2144 22.8173C23.2258 22.8359 23.2358 22.8559 23.2415 22.8773ZM23.156 22.7489C23.1389 22.7332 23.119 22.7189 23.0976 22.7047C23.1204 22.7175 23.1389 22.7318 23.156 22.7489ZM23.26 23.1497C23.2558 23.1768 23.2515 23.2039 23.2444 23.2296C23.2515 23.2025 23.2558 23.1754 23.26 23.1497ZM23.2087 23.3509C23.1988 23.3794 23.1874 23.4108 23.1745 23.4407C23.1859 23.4108 23.1988 23.3808 23.2087 23.3509ZM23.1674 23.4579C23.1546 23.4907 23.1389 23.5235 23.1232 23.5563C23.1389 23.5235 23.1532 23.4907 23.1674 23.4579ZM23.0021 23.7745C22.9807 23.8088 22.9594 23.8416 22.938 23.8744C22.9608 23.8416 22.9822 23.8073 23.0021 23.7745Z" fill="#ED682E"/>
<path d="M23.6233 16.8702L20.2903 18.796C19.4111 19.3039 19.4111 20.572 20.2903 21.0799L22.3095 22.2468C22.3593 22.2753 22.4064 22.3081 22.452 22.3423C22.4662 22.3523 22.479 22.3652 22.4933 22.3752C22.5232 22.4008 22.5517 22.4251 22.5788 22.4522C22.593 22.465 22.6059 22.4793 22.6201 22.495C22.6457 22.5207 22.6671 22.5492 22.6899 22.5763C22.6999 22.5906 22.7127 22.6034 22.7227 22.6191C22.7483 22.6533 22.7697 22.6904 22.7911 22.7261C22.7968 22.7346 22.8011 22.7432 22.8068 22.7518C22.8324 22.796 22.8524 22.8445 22.8723 22.8916C22.878 22.9058 22.8823 22.9201 22.8866 22.9344C22.898 22.9686 22.9108 23.0028 22.9193 23.0385C22.925 23.057 22.9279 23.0756 22.9322 23.0927C22.9407 23.1255 22.945 23.1569 22.9507 23.1897C22.9535 23.2082 22.9564 23.2268 22.9592 23.2453C22.9635 23.281 22.9649 23.3181 22.9664 23.3537C22.9664 23.368 22.9664 23.3837 22.9664 23.398C22.9664 23.4479 22.9621 23.4978 22.9578 23.5478C22.9578 23.5606 22.9535 23.5734 22.9507 23.5877C22.945 23.6248 22.9393 23.6619 22.9293 23.699C22.925 23.7175 22.9193 23.7361 22.9151 23.7546C22.9065 23.786 22.8965 23.8159 22.8851 23.8473C22.878 23.8659 22.8709 23.8844 22.8623 23.9044C22.8495 23.9358 22.8353 23.9657 22.8182 23.9971C22.8096 24.0128 22.8025 24.0299 22.7925 24.0456C22.7669 24.0898 22.7398 24.134 22.7099 24.1754C22.6073 24.3152 22.4733 24.4379 22.3066 24.5335L24.2802 23.3894L24.2845 23.3923L26.0286 22.3752L29.071 20.6006C29.5911 20.2967 29.5925 19.5492 29.0809 19.2411L24.9343 16.8688C24.5267 16.6363 24.028 16.6363 23.6219 16.8717L23.6233 16.8702Z" fill="white"/>
</g>
<defs>
<linearGradient id="paint0_linear_128_3061" x1="1.42699" y1="0.000145928" x2="36.0281" y2="0.83762" gradientUnits="userSpaceOnUse">
<stop stop-color="#ED682E"/>
<stop offset="1" stop-color="#FF9E2C"/>
</linearGradient>
<clipPath id="clip0_128_3061">
<rect width="266" height="40" fill="white"/>
</clipPath>
</defs>
</svg>
